<mxfile host="app.diagrams.net" modified="2023-10-21T05:13:31.601Z" agent="Mozilla/5.0 (Windows NT 10.0; Win64; x64) AppleWebKit/537.36 (KHTML, like Gecko) Chrome/118.0.0.0 Safari/537.36" etag="F5QIPGYxVVdk9la6bINa" version="22.0.5" type="device" pages="2">
  <diagram name="Class" id="7kTvqts-z4OBNLsNzyf6">
    <mxGraphModel dx="1050" dy="542" grid="1" gridSize="10" guides="1" tooltips="1" connect="1" arrows="1" fold="1" page="1" pageScale="1" pageWidth="827" pageHeight="1169" math="0" shadow="0">
      <root>
        <mxCell id="0" />
        <mxCell id="1" parent="0" />
        <mxCell id="0fICKnYVoutj4X6Pjq9i-1" value="Емтихан" style="swimlane;fontStyle=0;align=center;verticalAlign=top;childLayout=stackLayout;horizontal=1;startSize=26;horizontalStack=0;resizeParent=1;resizeLast=0;collapsible=1;marginBottom=0;rounded=0;shadow=0;strokeWidth=1;" parent="1" vertex="1">
          <mxGeometry x="310" y="80" width="180" height="260" as="geometry">
            <mxRectangle x="340" y="380" width="170" height="26" as="alternateBounds" />
          </mxGeometry>
        </mxCell>
        <mxCell id="0fICKnYVoutj4X6Pjq9i-2" value="+Емтихан кестесі" style="text;strokeColor=none;fillColor=none;align=left;verticalAlign=top;spacingLeft=4;spacingRight=4;overflow=hidden;rotatable=0;points=[[0,0.5],[1,0.5]];portConstraint=eastwest;whiteSpace=wrap;html=1;" parent="0fICKnYVoutj4X6Pjq9i-1" vertex="1">
          <mxGeometry y="26" width="180" height="26" as="geometry" />
        </mxCell>
        <mxCell id="0fICKnYVoutj4X6Pjq9i-3" value="+Пән аты" style="text;strokeColor=none;fillColor=none;align=left;verticalAlign=top;spacingLeft=4;spacingRight=4;overflow=hidden;rotatable=0;points=[[0,0.5],[1,0.5]];portConstraint=eastwest;whiteSpace=wrap;html=1;" parent="0fICKnYVoutj4X6Pjq9i-1" vertex="1">
          <mxGeometry y="52" width="180" height="26" as="geometry" />
        </mxCell>
        <mxCell id="0fICKnYVoutj4X6Pjq9i-4" value="+Оқытушы" style="text;strokeColor=none;fillColor=none;align=left;verticalAlign=top;spacingLeft=4;spacingRight=4;overflow=hidden;rotatable=0;points=[[0,0.5],[1,0.5]];portConstraint=eastwest;whiteSpace=wrap;html=1;" parent="0fICKnYVoutj4X6Pjq9i-1" vertex="1">
          <mxGeometry y="78" width="180" height="26" as="geometry" />
        </mxCell>
        <mxCell id="0fICKnYVoutj4X6Pjq9i-5" value="+Экзамен түрі" style="text;strokeColor=none;fillColor=none;align=left;verticalAlign=top;spacingLeft=4;spacingRight=4;overflow=hidden;rotatable=0;points=[[0,0.5],[1,0.5]];portConstraint=eastwest;whiteSpace=wrap;html=1;" parent="0fICKnYVoutj4X6Pjq9i-1" vertex="1">
          <mxGeometry y="104" width="180" height="26" as="geometry" />
        </mxCell>
        <mxCell id="0fICKnYVoutj4X6Pjq9i-6" value="+Факультет дәрісханасы" style="text;strokeColor=none;fillColor=none;align=left;verticalAlign=top;spacingLeft=4;spacingRight=4;overflow=hidden;rotatable=0;points=[[0,0.5],[1,0.5]];portConstraint=eastwest;whiteSpace=wrap;html=1;" parent="0fICKnYVoutj4X6Pjq9i-1" vertex="1">
          <mxGeometry y="130" width="180" height="26" as="geometry" />
        </mxCell>
        <mxCell id="0fICKnYVoutj4X6Pjq9i-7" value="+Топ түрі" style="text;strokeColor=none;fillColor=none;align=left;verticalAlign=top;spacingLeft=4;spacingRight=4;overflow=hidden;rotatable=0;points=[[0,0.5],[1,0.5]];portConstraint=eastwest;whiteSpace=wrap;html=1;" parent="0fICKnYVoutj4X6Pjq9i-1" vertex="1">
          <mxGeometry y="156" width="180" height="26" as="geometry" />
        </mxCell>
        <mxCell id="0fICKnYVoutj4X6Pjq9i-8" value="+Сілтеулер" style="text;strokeColor=none;fillColor=none;align=left;verticalAlign=top;spacingLeft=4;spacingRight=4;overflow=hidden;rotatable=0;points=[[0,0.5],[1,0.5]];portConstraint=eastwest;whiteSpace=wrap;html=1;" parent="0fICKnYVoutj4X6Pjq9i-1" vertex="1">
          <mxGeometry y="182" width="180" height="26" as="geometry" />
        </mxCell>
        <mxCell id="0fICKnYVoutj4X6Pjq9i-12" value="" style="line;html=1;strokeWidth=1;align=left;verticalAlign=middle;spacingTop=-1;spacingLeft=3;spacingRight=3;rotatable=0;labelPosition=right;points=[];portConstraint=eastwest;" parent="0fICKnYVoutj4X6Pjq9i-1" vertex="1">
          <mxGeometry y="208" width="180" height="8" as="geometry" />
        </mxCell>
        <mxCell id="0fICKnYVoutj4X6Pjq9i-13" value="+Сілтеу арқылы емтиханға кіру" style="text;strokeColor=none;fillColor=none;align=left;verticalAlign=top;spacingLeft=4;spacingRight=4;overflow=hidden;rotatable=0;points=[[0,0.5],[1,0.5]];portConstraint=eastwest;whiteSpace=wrap;html=1;" parent="0fICKnYVoutj4X6Pjq9i-1" vertex="1">
          <mxGeometry y="216" width="180" height="44" as="geometry" />
        </mxCell>
        <mxCell id="0fICKnYVoutj4X6Pjq9i-17" value="Емтихан кестесі" style="swimlane;fontStyle=0;align=center;verticalAlign=top;childLayout=stackLayout;horizontal=1;startSize=26;horizontalStack=0;resizeParent=1;resizeLast=0;collapsible=1;marginBottom=0;rounded=0;shadow=0;strokeWidth=1;" parent="1" vertex="1">
          <mxGeometry x="50" y="12" width="160" height="120" as="geometry">
            <mxRectangle x="340" y="380" width="170" height="26" as="alternateBounds" />
          </mxGeometry>
        </mxCell>
        <mxCell id="0fICKnYVoutj4X6Pjq9i-18" value="+Өткізілетін күні" style="text;strokeColor=none;fillColor=none;align=left;verticalAlign=top;spacingLeft=4;spacingRight=4;overflow=hidden;rotatable=0;points=[[0,0.5],[1,0.5]];portConstraint=eastwest;whiteSpace=wrap;html=1;" parent="0fICKnYVoutj4X6Pjq9i-17" vertex="1">
          <mxGeometry y="26" width="160" height="26" as="geometry" />
        </mxCell>
        <mxCell id="0fICKnYVoutj4X6Pjq9i-19" value="+Басталатын уақыты" style="text;strokeColor=none;fillColor=none;align=left;verticalAlign=top;spacingLeft=4;spacingRight=4;overflow=hidden;rotatable=0;points=[[0,0.5],[1,0.5]];portConstraint=eastwest;whiteSpace=wrap;html=1;" parent="0fICKnYVoutj4X6Pjq9i-17" vertex="1">
          <mxGeometry y="52" width="160" height="26" as="geometry" />
        </mxCell>
        <mxCell id="0fICKnYVoutj4X6Pjq9i-20" value="+Ұзақтығы" style="text;strokeColor=none;fillColor=none;align=left;verticalAlign=top;spacingLeft=4;spacingRight=4;overflow=hidden;rotatable=0;points=[[0,0.5],[1,0.5]];portConstraint=eastwest;whiteSpace=wrap;html=1;" parent="0fICKnYVoutj4X6Pjq9i-17" vertex="1">
          <mxGeometry y="78" width="160" height="26" as="geometry" />
        </mxCell>
        <mxCell id="0fICKnYVoutj4X6Pjq9i-25" value="" style="endArrow=none;html=1;rounded=0;exitX=1.015;exitY=0.089;exitDx=0;exitDy=0;exitPerimeter=0;entryX=0;entryY=0.5;entryDx=0;entryDy=0;startArrow=ERmany;startFill=0;" parent="1" source="0fICKnYVoutj4X6Pjq9i-17" target="0fICKnYVoutj4X6Pjq9i-2" edge="1">
          <mxGeometry width="50" height="50" relative="1" as="geometry">
            <mxPoint x="340" y="210" as="sourcePoint" />
            <mxPoint x="390" y="160" as="targetPoint" />
            <Array as="points">
              <mxPoint x="280" y="24" />
              <mxPoint x="280" y="120" />
            </Array>
          </mxGeometry>
        </mxCell>
        <mxCell id="0fICKnYVoutj4X6Pjq9i-26" value="Оқытушы" style="swimlane;fontStyle=0;align=center;verticalAlign=top;childLayout=stackLayout;horizontal=1;startSize=26;horizontalStack=0;resizeParent=1;resizeLast=0;collapsible=1;marginBottom=0;rounded=0;shadow=0;strokeWidth=1;" parent="1" vertex="1">
          <mxGeometry x="550" y="130" width="220" height="218" as="geometry">
            <mxRectangle x="340" y="380" width="170" height="26" as="alternateBounds" />
          </mxGeometry>
        </mxCell>
        <mxCell id="0fICKnYVoutj4X6Pjq9i-27" value="+Аты&amp;nbsp;" style="text;strokeColor=none;fillColor=none;align=left;verticalAlign=top;spacingLeft=4;spacingRight=4;overflow=hidden;rotatable=0;points=[[0,0.5],[1,0.5]];portConstraint=eastwest;whiteSpace=wrap;html=1;" parent="0fICKnYVoutj4X6Pjq9i-26" vertex="1">
          <mxGeometry y="26" width="220" height="26" as="geometry" />
        </mxCell>
        <mxCell id="0fICKnYVoutj4X6Pjq9i-28" value="+Фамилия" style="text;strokeColor=none;fillColor=none;align=left;verticalAlign=top;spacingLeft=4;spacingRight=4;overflow=hidden;rotatable=0;points=[[0,0.5],[1,0.5]];portConstraint=eastwest;whiteSpace=wrap;html=1;" parent="0fICKnYVoutj4X6Pjq9i-26" vertex="1">
          <mxGeometry y="52" width="220" height="26" as="geometry" />
        </mxCell>
        <mxCell id="0fICKnYVoutj4X6Pjq9i-29" value="+ Почта" style="text;strokeColor=none;fillColor=none;align=left;verticalAlign=top;spacingLeft=4;spacingRight=4;overflow=hidden;rotatable=0;points=[[0,0.5],[1,0.5]];portConstraint=eastwest;whiteSpace=wrap;html=1;" parent="0fICKnYVoutj4X6Pjq9i-26" vertex="1">
          <mxGeometry y="78" width="220" height="26" as="geometry" />
        </mxCell>
        <mxCell id="0fICKnYVoutj4X6Pjq9i-55" value="+Оқытатын пәні" style="text;strokeColor=none;fillColor=none;align=left;verticalAlign=top;spacingLeft=4;spacingRight=4;overflow=hidden;rotatable=0;points=[[0,0.5],[1,0.5]];portConstraint=eastwest;whiteSpace=wrap;html=1;" parent="0fICKnYVoutj4X6Pjq9i-26" vertex="1">
          <mxGeometry y="104" width="220" height="26" as="geometry" />
        </mxCell>
        <mxCell id="0fICKnYVoutj4X6Pjq9i-30" value="" style="line;html=1;strokeWidth=1;align=left;verticalAlign=middle;spacingTop=-1;spacingLeft=3;spacingRight=3;rotatable=0;labelPosition=right;points=[];portConstraint=eastwest;" parent="0fICKnYVoutj4X6Pjq9i-26" vertex="1">
          <mxGeometry y="130" width="220" height="8" as="geometry" />
        </mxCell>
        <mxCell id="0fICKnYVoutj4X6Pjq9i-31" value="+Емтихан сұрақтарын салу" style="text;strokeColor=none;fillColor=none;align=left;verticalAlign=top;spacingLeft=4;spacingRight=4;overflow=hidden;rotatable=0;points=[[0,0.5],[1,0.5]];portConstraint=eastwest;whiteSpace=wrap;html=1;" parent="0fICKnYVoutj4X6Pjq9i-26" vertex="1">
          <mxGeometry y="138" width="220" height="28" as="geometry" />
        </mxCell>
        <mxCell id="0fICKnYVoutj4X6Pjq9i-32" value="+Тексеру" style="text;strokeColor=none;fillColor=none;align=left;verticalAlign=top;spacingLeft=4;spacingRight=4;overflow=hidden;rotatable=0;points=[[0,0.5],[1,0.5]];portConstraint=eastwest;whiteSpace=wrap;html=1;" parent="0fICKnYVoutj4X6Pjq9i-26" vertex="1">
          <mxGeometry y="166" width="220" height="26" as="geometry" />
        </mxCell>
        <mxCell id="0fICKnYVoutj4X6Pjq9i-33" value="+Бағалау" style="text;strokeColor=none;fillColor=none;align=left;verticalAlign=top;spacingLeft=4;spacingRight=4;overflow=hidden;rotatable=0;points=[[0,0.5],[1,0.5]];portConstraint=eastwest;whiteSpace=wrap;html=1;" parent="0fICKnYVoutj4X6Pjq9i-26" vertex="1">
          <mxGeometry y="192" width="220" height="26" as="geometry" />
        </mxCell>
        <mxCell id="0fICKnYVoutj4X6Pjq9i-44" value="" style="endArrow=ERmany;html=1;rounded=0;entryX=1;entryY=0.5;entryDx=0;entryDy=0;exitX=0.005;exitY=0.048;exitDx=0;exitDy=0;exitPerimeter=0;endFill=0;" parent="1" source="0fICKnYVoutj4X6Pjq9i-26" target="0fICKnYVoutj4X6Pjq9i-4" edge="1">
          <mxGeometry width="50" height="50" relative="1" as="geometry">
            <mxPoint x="340" y="310" as="sourcePoint" />
            <mxPoint x="390" y="260" as="targetPoint" />
            <Array as="points">
              <mxPoint x="520" y="140" />
              <mxPoint x="520" y="170" />
            </Array>
          </mxGeometry>
        </mxCell>
        <mxCell id="0fICKnYVoutj4X6Pjq9i-45" value="&lt;&lt;Enum&gt;&gt;&#xa;Топ түрі" style="swimlane;fontStyle=0;align=center;verticalAlign=top;childLayout=stackLayout;horizontal=1;startSize=40;horizontalStack=0;resizeParent=1;resizeLast=0;collapsible=1;marginBottom=0;rounded=0;shadow=0;strokeWidth=1;" parent="1" vertex="1">
          <mxGeometry x="60" y="410" width="190" height="130" as="geometry">
            <mxRectangle x="340" y="380" width="170" height="26" as="alternateBounds" />
          </mxGeometry>
        </mxCell>
        <mxCell id="0fICKnYVoutj4X6Pjq9i-46" value="қазақ тілі" style="text;strokeColor=none;fillColor=none;align=left;verticalAlign=top;spacingLeft=4;spacingRight=4;overflow=hidden;rotatable=0;points=[[0,0.5],[1,0.5]];portConstraint=eastwest;whiteSpace=wrap;html=1;" parent="0fICKnYVoutj4X6Pjq9i-45" vertex="1">
          <mxGeometry y="40" width="190" height="26" as="geometry" />
        </mxCell>
        <mxCell id="0fICKnYVoutj4X6Pjq9i-47" value="орыс тілі" style="text;strokeColor=none;fillColor=none;align=left;verticalAlign=top;spacingLeft=4;spacingRight=4;overflow=hidden;rotatable=0;points=[[0,0.5],[1,0.5]];portConstraint=eastwest;whiteSpace=wrap;html=1;" parent="0fICKnYVoutj4X6Pjq9i-45" vertex="1">
          <mxGeometry y="66" width="190" height="24" as="geometry" />
        </mxCell>
        <mxCell id="0fICKnYVoutj4X6Pjq9i-48" value="ағылшын тілі" style="text;strokeColor=none;fillColor=none;align=left;verticalAlign=top;spacingLeft=4;spacingRight=4;overflow=hidden;rotatable=0;points=[[0,0.5],[1,0.5]];portConstraint=eastwest;whiteSpace=wrap;html=1;" parent="0fICKnYVoutj4X6Pjq9i-45" vertex="1">
          <mxGeometry y="90" width="190" height="26" as="geometry" />
        </mxCell>
        <mxCell id="0fICKnYVoutj4X6Pjq9i-49" value="" style="endArrow=none;html=1;rounded=0;exitX=1.007;exitY=0.184;exitDx=0;exitDy=0;exitPerimeter=0;entryX=0;entryY=0.5;entryDx=0;entryDy=0;" parent="1" source="0fICKnYVoutj4X6Pjq9i-45" target="0fICKnYVoutj4X6Pjq9i-7" edge="1">
          <mxGeometry width="50" height="50" relative="1" as="geometry">
            <mxPoint x="250" y="260" as="sourcePoint" />
            <mxPoint x="300" y="210" as="targetPoint" />
            <Array as="points">
              <mxPoint x="280" y="434" />
              <mxPoint x="280" y="334" />
              <mxPoint x="280" y="250" />
            </Array>
          </mxGeometry>
        </mxCell>
        <mxCell id="0fICKnYVoutj4X6Pjq9i-50" value="&lt;&lt;Enum&gt;&gt;&#xa;Экзамен түрі" style="swimlane;fontStyle=0;align=center;verticalAlign=top;childLayout=stackLayout;horizontal=1;startSize=40;horizontalStack=0;resizeParent=1;resizeLast=0;collapsible=1;marginBottom=0;rounded=0;shadow=0;strokeWidth=1;" parent="1" vertex="1">
          <mxGeometry x="45" y="210" width="190" height="130" as="geometry">
            <mxRectangle x="340" y="380" width="170" height="26" as="alternateBounds" />
          </mxGeometry>
        </mxCell>
        <mxCell id="0fICKnYVoutj4X6Pjq9i-51" value="Оффлайн" style="text;strokeColor=none;fillColor=none;align=left;verticalAlign=top;spacingLeft=4;spacingRight=4;overflow=hidden;rotatable=0;points=[[0,0.5],[1,0.5]];portConstraint=eastwest;whiteSpace=wrap;html=1;" parent="0fICKnYVoutj4X6Pjq9i-50" vertex="1">
          <mxGeometry y="40" width="190" height="26" as="geometry" />
        </mxCell>
        <mxCell id="0fICKnYVoutj4X6Pjq9i-52" value="Онлайн" style="text;strokeColor=none;fillColor=none;align=left;verticalAlign=top;spacingLeft=4;spacingRight=4;overflow=hidden;rotatable=0;points=[[0,0.5],[1,0.5]];portConstraint=eastwest;whiteSpace=wrap;html=1;" parent="0fICKnYVoutj4X6Pjq9i-50" vertex="1">
          <mxGeometry y="66" width="190" height="34" as="geometry" />
        </mxCell>
        <mxCell id="0fICKnYVoutj4X6Pjq9i-54" value="" style="endArrow=none;html=1;rounded=0;exitX=0.999;exitY=0.164;exitDx=0;exitDy=0;exitPerimeter=0;entryX=0;entryY=0.5;entryDx=0;entryDy=0;" parent="1" source="0fICKnYVoutj4X6Pjq9i-50" target="0fICKnYVoutj4X6Pjq9i-5" edge="1">
          <mxGeometry width="50" height="50" relative="1" as="geometry">
            <mxPoint x="250" y="260" as="sourcePoint" />
            <mxPoint x="300" y="210" as="targetPoint" />
            <Array as="points">
              <mxPoint x="270" y="230" />
              <mxPoint x="270" y="197" />
            </Array>
          </mxGeometry>
        </mxCell>
      </root>
    </mxGraphModel>
  </diagram>
  <diagram id="63E4GI2FhcwPM8CRxHEh" name="Sequense">
    <mxGraphModel dx="344" dy="178" grid="1" gridSize="10" guides="1" tooltips="1" connect="1" arrows="1" fold="1" page="1" pageScale="1" pageWidth="827" pageHeight="1169" math="0" shadow="0">
      <root>
        <mxCell id="0" />
        <mxCell id="1" parent="0" />
        <mxCell id="nKWXwD8dTeIQRwF8nsEJ-2" value="Студент" style="shape=umlActor;verticalLabelPosition=bottom;verticalAlign=top;html=1;outlineConnect=0;" parent="1" vertex="1">
          <mxGeometry x="30" y="110" width="30" height="60" as="geometry" />
        </mxCell>
        <mxCell id="nKWXwD8dTeIQRwF8nsEJ-3" value="" style="endArrow=none;dashed=1;html=1;rounded=0;" parent="1" source="c9F3xQ6qsXitaRapST8s-19" edge="1">
          <mxGeometry width="50" height="50" relative="1" as="geometry">
            <mxPoint x="50" y="610" as="sourcePoint" />
            <mxPoint x="50" y="190" as="targetPoint" />
          </mxGeometry>
        </mxCell>
        <mxCell id="nKWXwD8dTeIQRwF8nsEJ-4" value="Басты бет" style="shape=umlLifeline;perimeter=lifelinePerimeter;whiteSpace=wrap;html=1;container=1;dropTarget=0;collapsible=0;recursiveResize=0;outlineConnect=0;portConstraint=eastwest;newEdgeStyle={&quot;curved&quot;:0,&quot;rounded&quot;:0};" parent="1" vertex="1">
          <mxGeometry x="80" y="144" width="100" height="456" as="geometry" />
        </mxCell>
        <mxCell id="nKWXwD8dTeIQRwF8nsEJ-5" value="" style="html=1;points=[[0,0,0,0,5],[0,1,0,0,-5],[1,0,0,0,5],[1,1,0,0,-5]];perimeter=orthogonalPerimeter;outlineConnect=0;targetShapes=umlLifeline;portConstraint=eastwest;newEdgeStyle={&quot;curved&quot;:0,&quot;rounded&quot;:0};" parent="nKWXwD8dTeIQRwF8nsEJ-4" vertex="1">
          <mxGeometry x="45" y="70" width="10" height="90" as="geometry" />
        </mxCell>
        <mxCell id="c9F3xQ6qsXitaRapST8s-21" value="" style="shape=umlDestroy;whiteSpace=wrap;html=1;strokeWidth=3;targetShapes=umlLifeline;" parent="nKWXwD8dTeIQRwF8nsEJ-4" vertex="1">
          <mxGeometry x="35" y="435" width="30" height="30" as="geometry" />
        </mxCell>
        <mxCell id="nKWXwD8dTeIQRwF8nsEJ-8" value="Емтихан кестесі" style="shape=umlLifeline;perimeter=lifelinePerimeter;whiteSpace=wrap;html=1;container=1;dropTarget=0;collapsible=0;recursiveResize=0;outlineConnect=0;portConstraint=eastwest;newEdgeStyle={&quot;curved&quot;:0,&quot;rounded&quot;:0};" parent="1" vertex="1">
          <mxGeometry x="314" y="145" width="100" height="445" as="geometry" />
        </mxCell>
        <mxCell id="nKWXwD8dTeIQRwF8nsEJ-9" value="" style="html=1;points=[[0,0,0,0,5],[0,1,0,0,-5],[1,0,0,0,5],[1,1,0,0,-5]];perimeter=orthogonalPerimeter;outlineConnect=0;targetShapes=umlLifeline;portConstraint=eastwest;newEdgeStyle={&quot;curved&quot;:0,&quot;rounded&quot;:0};" parent="nKWXwD8dTeIQRwF8nsEJ-8" vertex="1">
          <mxGeometry x="45" y="145" width="10" height="73" as="geometry" />
        </mxCell>
        <mxCell id="c9F3xQ6qsXitaRapST8s-22" value="" style="shape=umlDestroy;whiteSpace=wrap;html=1;strokeWidth=3;targetShapes=umlLifeline;" parent="nKWXwD8dTeIQRwF8nsEJ-8" vertex="1">
          <mxGeometry x="35" y="415" width="30" height="30" as="geometry" />
        </mxCell>
        <mxCell id="fzuoSHk8e7RBEc6G_87t-1" value="Кіру" style="html=1;verticalAlign=bottom;endArrow=block;curved=0;rounded=0;" parent="1" target="nKWXwD8dTeIQRwF8nsEJ-5" edge="1">
          <mxGeometry width="80" relative="1" as="geometry">
            <mxPoint x="50" y="220" as="sourcePoint" />
            <mxPoint x="230" y="220" as="targetPoint" />
          </mxGeometry>
        </mxCell>
        <mxCell id="fzuoSHk8e7RBEc6G_87t-2" value="Емтихан тапсыру" style="html=1;verticalAlign=bottom;startArrow=none;endArrow=block;startSize=8;curved=0;rounded=0;entryX=0;entryY=0;entryDx=0;entryDy=5;startFill=0;entryPerimeter=0;" parent="1" target="nKWXwD8dTeIQRwF8nsEJ-6" edge="1" source="nKWXwD8dTeIQRwF8nsEJ-5">
          <mxGeometry relative="1" as="geometry">
            <mxPoint x="140" y="295" as="sourcePoint" />
            <mxPoint x="235" y="300" as="targetPoint" />
            <Array as="points" />
          </mxGeometry>
        </mxCell>
        <mxCell id="fzuoSHk8e7RBEc6G_87t-3" value="Кесте&lt;br&gt;&amp;nbsp;функциясына кіру" style="html=1;verticalAlign=bottom;endArrow=block;curved=0;rounded=0;" parent="1" source="nKWXwD8dTeIQRwF8nsEJ-6" target="nKWXwD8dTeIQRwF8nsEJ-9" edge="1">
          <mxGeometry relative="1" as="geometry">
            <mxPoint x="250" y="300" as="sourcePoint" />
            <mxPoint x="400" y="300" as="targetPoint" />
            <mxPoint as="offset" />
          </mxGeometry>
        </mxCell>
        <mxCell id="fzuoSHk8e7RBEc6G_87t-5" value="Сілтеме" style="shape=umlLifeline;perimeter=lifelinePerimeter;whiteSpace=wrap;html=1;container=1;dropTarget=0;collapsible=0;recursiveResize=0;outlineConnect=0;portConstraint=eastwest;newEdgeStyle={&quot;curved&quot;:0,&quot;rounded&quot;:0};" parent="1" vertex="1">
          <mxGeometry x="550" y="145" width="100" height="425" as="geometry" />
        </mxCell>
        <mxCell id="fzuoSHk8e7RBEc6G_87t-6" value="" style="html=1;points=[[0,0,0,0,5],[0,1,0,0,-5],[1,0,0,0,5],[1,1,0,0,-5]];perimeter=orthogonalPerimeter;outlineConnect=0;targetShapes=umlLifeline;portConstraint=eastwest;newEdgeStyle={&quot;curved&quot;:0,&quot;rounded&quot;:0};" parent="fzuoSHk8e7RBEc6G_87t-5" vertex="1">
          <mxGeometry x="45" y="155" width="10" height="130" as="geometry" />
        </mxCell>
        <mxCell id="c9F3xQ6qsXitaRapST8s-24" value="" style="shape=umlDestroy;whiteSpace=wrap;html=1;strokeWidth=3;targetShapes=umlLifeline;" parent="fzuoSHk8e7RBEc6G_87t-5" vertex="1">
          <mxGeometry x="35" y="395" width="30" height="30" as="geometry" />
        </mxCell>
        <mxCell id="pr0snZATk-ickpHmiuk7-1" value="&lt;span style=&quot;font-size: 10px;&quot;&gt;Пән бойынша&amp;nbsp;сілтеме арқылы&lt;br&gt;&amp;nbsp;емтиханға кіру&lt;/span&gt;" style="html=1;verticalAlign=bottom;endArrow=block;curved=0;rounded=0;" parent="1" target="fzuoSHk8e7RBEc6G_87t-6" edge="1">
          <mxGeometry relative="1" as="geometry">
            <mxPoint x="370" y="310" as="sourcePoint" />
            <mxPoint x="590" y="310" as="targetPoint" />
            <Array as="points">
              <mxPoint x="430" y="310" />
            </Array>
            <mxPoint as="offset" />
          </mxGeometry>
        </mxCell>
        <mxCell id="pr0snZATk-ickpHmiuk7-2" value="Оқытушы" style="shape=umlActor;verticalLabelPosition=bottom;verticalAlign=top;html=1;outlineConnect=0;" parent="1" vertex="1">
          <mxGeometry x="670" y="190" width="20" height="40" as="geometry" />
        </mxCell>
        <mxCell id="pr0snZATk-ickpHmiuk7-3" value="" style="endArrow=none;html=1;rounded=0;dashed=1;" parent="1" source="c9F3xQ6qsXitaRapST8s-5" edge="1">
          <mxGeometry width="50" height="50" relative="1" as="geometry">
            <mxPoint x="679.71" y="550" as="sourcePoint" />
            <mxPoint x="679.71" y="250" as="targetPoint" />
          </mxGeometry>
        </mxCell>
        <mxCell id="c9F3xQ6qsXitaRapST8s-6" value="" style="endArrow=none;html=1;rounded=0;dashed=1;" parent="1" target="c9F3xQ6qsXitaRapST8s-5" edge="1">
          <mxGeometry width="50" height="50" relative="1" as="geometry">
            <mxPoint x="679.71" y="550" as="sourcePoint" />
            <mxPoint x="679.71" y="250" as="targetPoint" />
          </mxGeometry>
        </mxCell>
        <mxCell id="c9F3xQ6qsXitaRapST8s-5" value="" style="html=1;points=[[0,0,0,0,5],[0,1,0,0,-5],[1,0,0,0,5],[1,1,0,0,-5]];perimeter=orthogonalPerimeter;outlineConnect=0;targetShapes=umlLifeline;portConstraint=eastwest;newEdgeStyle={&quot;curved&quot;:0,&quot;rounded&quot;:0};" parent="1" vertex="1">
          <mxGeometry x="675" y="333.5" width="10" height="63" as="geometry" />
        </mxCell>
        <mxCell id="c9F3xQ6qsXitaRapST8s-7" value="" style="html=1;points=[[0,0,0,0,5],[0,1,0,0,-5],[1,0,0,0,5],[1,1,0,0,-5]];perimeter=orthogonalPerimeter;outlineConnect=0;targetShapes=umlLifeline;portConstraint=eastwest;newEdgeStyle={&quot;curved&quot;:0,&quot;rounded&quot;:0};" parent="1" vertex="1">
          <mxGeometry x="685" y="356.5" width="10" height="40" as="geometry" />
        </mxCell>
        <mxCell id="c9F3xQ6qsXitaRapST8s-9" style="edgeStyle=orthogonalEdgeStyle;rounded=0;orthogonalLoop=1;jettySize=auto;html=1;curved=0;" parent="1" source="c9F3xQ6qsXitaRapST8s-5" target="c9F3xQ6qsXitaRapST8s-7" edge="1">
          <mxGeometry relative="1" as="geometry">
            <mxPoint x="690" y="350" as="sourcePoint" />
            <mxPoint x="700" y="383.5" as="targetPoint" />
            <Array as="points">
              <mxPoint x="725" y="347" />
              <mxPoint x="725" y="384" />
            </Array>
          </mxGeometry>
        </mxCell>
        <mxCell id="c9F3xQ6qsXitaRapST8s-11" value="&lt;font style=&quot;font-size: 9px;&quot;&gt;Тексертуге&lt;br&gt;&amp;nbsp;сұраныс&lt;/font&gt;" style="html=1;verticalAlign=bottom;endArrow=block;curved=0;rounded=0;" parent="1" source="fzuoSHk8e7RBEc6G_87t-6" edge="1">
          <mxGeometry x="0.0036" relative="1" as="geometry">
            <mxPoint x="570" y="350" as="sourcePoint" />
            <mxPoint x="675" y="349.8" as="targetPoint" />
            <mxPoint as="offset" />
          </mxGeometry>
        </mxCell>
        <mxCell id="c9F3xQ6qsXitaRapST8s-12" value="&lt;font style=&quot;font-size: 8px;&quot;&gt;Емтихан жауабын тексеру&lt;/font&gt;" style="text;html=1;align=center;verticalAlign=middle;resizable=0;points=[];autosize=1;strokeColor=none;fillColor=none;" parent="1" vertex="1">
          <mxGeometry x="675" y="320" width="120" height="30" as="geometry" />
        </mxCell>
        <mxCell id="c9F3xQ6qsXitaRapST8s-14" value="Аттестатция" style="shape=umlLifeline;perimeter=lifelinePerimeter;whiteSpace=wrap;html=1;container=1;dropTarget=0;collapsible=0;recursiveResize=0;outlineConnect=0;portConstraint=eastwest;newEdgeStyle={&quot;curved&quot;:0,&quot;rounded&quot;:0};" parent="1" vertex="1">
          <mxGeometry x="430" y="145" width="100" height="425" as="geometry" />
        </mxCell>
        <mxCell id="nKWXwD8dTeIQRwF8nsEJ-7" value="" style="html=1;points=[[0,0,0,0,5],[0,1,0,0,-5],[1,0,0,0,5],[1,1,0,0,-5]];perimeter=orthogonalPerimeter;outlineConnect=0;targetShapes=umlLifeline;portConstraint=eastwest;newEdgeStyle={&quot;curved&quot;:0,&quot;rounded&quot;:0};" parent="c9F3xQ6qsXitaRapST8s-14" vertex="1">
          <mxGeometry x="45" y="221.5" width="10" height="30" as="geometry" />
        </mxCell>
        <mxCell id="c9F3xQ6qsXitaRapST8s-23" value="" style="shape=umlDestroy;whiteSpace=wrap;html=1;strokeWidth=3;targetShapes=umlLifeline;" parent="c9F3xQ6qsXitaRapST8s-14" vertex="1">
          <mxGeometry x="35" y="395" width="30" height="30" as="geometry" />
        </mxCell>
        <mxCell id="c9F3xQ6qsXitaRapST8s-15" value="" style="endArrow=none;html=1;rounded=0;endFill=0;startArrow=block;startFill=1;dashed=1;dashPattern=8 8;entryX=-0.214;entryY=0.827;entryDx=0;entryDy=0;entryPerimeter=0;" parent="1" source="nKWXwD8dTeIQRwF8nsEJ-7" target="c9F3xQ6qsXitaRapST8s-5" edge="1">
          <mxGeometry width="50" height="50" relative="1" as="geometry">
            <mxPoint x="490" y="386" as="sourcePoint" />
            <mxPoint x="680" y="380" as="targetPoint" />
          </mxGeometry>
        </mxCell>
        <mxCell id="c9F3xQ6qsXitaRapST8s-16" value="Нәтиже" style="edgeLabel;html=1;align=center;verticalAlign=middle;resizable=0;points=[];" parent="c9F3xQ6qsXitaRapST8s-15" vertex="1" connectable="0">
          <mxGeometry x="-0.6687" y="1" relative="1" as="geometry">
            <mxPoint x="54" y="-8" as="offset" />
          </mxGeometry>
        </mxCell>
        <mxCell id="c9F3xQ6qsXitaRapST8s-18" value="Нәтижесін көру" style="html=1;verticalAlign=bottom;endArrow=open;dashed=1;endSize=8;curved=0;rounded=0;" parent="1" source="nKWXwD8dTeIQRwF8nsEJ-7" edge="1">
          <mxGeometry relative="1" as="geometry">
            <mxPoint x="470" y="390" as="sourcePoint" />
            <mxPoint x="50" y="390" as="targetPoint" />
          </mxGeometry>
        </mxCell>
        <mxCell id="c9F3xQ6qsXitaRapST8s-20" value="" style="endArrow=none;dashed=1;html=1;rounded=0;" parent="1" target="c9F3xQ6qsXitaRapST8s-19" edge="1">
          <mxGeometry width="50" height="50" relative="1" as="geometry">
            <mxPoint x="50" y="610" as="sourcePoint" />
            <mxPoint x="50" y="190" as="targetPoint" />
          </mxGeometry>
        </mxCell>
        <mxCell id="c9F3xQ6qsXitaRapST8s-19" value="" style="shape=umlDestroy;whiteSpace=wrap;html=1;strokeWidth=3;targetShapes=umlLifeline;" parent="1" vertex="1">
          <mxGeometry x="30" y="570" width="30" height="30" as="geometry" />
        </mxCell>
        <mxCell id="c9F3xQ6qsXitaRapST8s-25" value="" style="shape=umlDestroy;whiteSpace=wrap;html=1;strokeWidth=3;targetShapes=umlLifeline;" parent="1" vertex="1">
          <mxGeometry x="665" y="540" width="30" height="30" as="geometry" />
        </mxCell>
        <mxCell id="c9F3xQ6qsXitaRapST8s-26" value="Бакалавр" style="shape=umlLifeline;perimeter=lifelinePerimeter;whiteSpace=wrap;html=1;container=1;dropTarget=0;collapsible=0;recursiveResize=0;outlineConnect=0;portConstraint=eastwest;newEdgeStyle={&quot;curved&quot;:0,&quot;rounded&quot;:0};" parent="1" vertex="1">
          <mxGeometry x="190" y="145" width="100" height="445" as="geometry" />
        </mxCell>
        <mxCell id="nKWXwD8dTeIQRwF8nsEJ-6" value="" style="html=1;points=[[0,0,0,0,5],[0,1,0,0,-5],[1,0,0,0,5],[1,1,0,0,-5]];perimeter=orthogonalPerimeter;outlineConnect=0;targetShapes=umlLifeline;portConstraint=eastwest;newEdgeStyle={&quot;curved&quot;:0,&quot;rounded&quot;:0};" parent="c9F3xQ6qsXitaRapST8s-26" vertex="1">
          <mxGeometry x="45" y="145" width="10" height="20" as="geometry" />
        </mxCell>
        <mxCell id="c9F3xQ6qsXitaRapST8s-29" value="" style="shape=umlDestroy;whiteSpace=wrap;html=1;strokeWidth=3;targetShapes=umlLifeline;" parent="c9F3xQ6qsXitaRapST8s-26" vertex="1">
          <mxGeometry x="35" y="415" width="30" height="30" as="geometry" />
        </mxCell>
      </root>
    </mxGraphModel>
  </diagram>
</mxfile>
